ISO-10303-21;
HEADER;
/* Generated by software containing ST-Developer
 * from STEP Tools, Inc. (www.steptools.com) 
 */
/* OPTION: using custom renumber hook */

FILE_DESCRIPTION(
/* description */ ('STEP AP242 Edition 2',
'CAx-IF Rec.Pracs.---Representation and Presentation of Product Manufa
cturing Information (PMI)---4.0---2014-10-13',
'CAx-IF Rec.Pracs.---3D Tessellated Geometry---0.4---2014-09-14','2;1',
'CAx-IF Rec.Pracs.---User Defined Attributes---1.5---2016-08-15'),
/* implementation_level */ '2;1');

FILE_NAME(
/* name */ 'Part Studio 1 - Part 1',
/* time_stamp */ '2026-06-04T14:52:31Z',
/* author */ (''),
/* organization */ (''),
/* preprocessor_version */ 'ST-DEVELOPER v20',
/* originating_system */ 'ONSHAPE BY PTC INC, 1.215',
/* authorisation */ '  ');

FILE_SCHEMA (('AP242_MANAGED_MODEL_BASED_3D_ENGINEERING_MIM_LF { 1 0 10303 442 3 1 4 }'));
ENDSEC;

DATA;
#10=SHAPE_REPRESENTATION_RELATIONSHIP('','',#126,#11);
#11=ADVANCED_BREP_SHAPE_REPRESENTATION('',(#124),#268);
#12=PLANE('',#131);
#13=PLANE('',#132);
#14=B_SPLINE_CURVE_WITH_KNOTS('',3,(#172,#173,#174,#175,#176),
 .UNSPECIFIED.,.F.,.F.,(4,1,4),(0.,0.493866137627559,1.),.UNSPECIFIED.);
#15=B_SPLINE_CURVE_WITH_KNOTS('',3,(#180,#181,#182,#183,#184),
 .UNSPECIFIED.,.F.,.F.,(4,1,4),(0.,0.493866137627559,1.),.UNSPECIFIED.);
#16=B_SPLINE_CURVE_WITH_KNOTS('',3,(#203,#204,#205,#206,#207),
 .UNSPECIFIED.,.F.,.F.,(4,1,4),(0.,0.469956233074023,1.),.UNSPECIFIED.);
#17=B_SPLINE_CURVE_WITH_KNOTS('',3,(#211,#212,#213,#214,#215),
 .UNSPECIFIED.,.F.,.F.,(4,1,4),(0.,0.469956233074023,1.),.UNSPECIFIED.);
#18=B_SPLINE_CURVE_WITH_KNOTS('',3,(#226,#227,#228,#229,#230),
 .UNSPECIFIED.,.F.,.F.,(4,1,4),(0.,0.522600992580823,1.),.UNSPECIFIED.);
#19=B_SPLINE_CURVE_WITH_KNOTS('',3,(#234,#235,#236,#237,#238),
 .UNSPECIFIED.,.F.,.F.,(4,1,4),(0.,0.522600992580823,1.),.UNSPECIFIED.);
#20=B_SPLINE_CURVE_WITH_KNOTS('',3,(#255,#256,#257,#258,#259),
 .UNSPECIFIED.,.F.,.F.,(4,1,4),(0.,0.470852324593475,1.),.UNSPECIFIED.);
#21=B_SPLINE_CURVE_WITH_KNOTS('',3,(#260,#261,#262,#263,#264),
 .UNSPECIFIED.,.F.,.F.,(4,1,4),(0.,0.470852324593475,1.),.UNSPECIFIED.);
#22=B_SPLINE_SURFACE_WITH_KNOTS('',3,1,((#160,#161),(#162,#163),(#164,#165),
(#166,#167),(#168,#169),(#170,#171)),.SURF_OF_LINEAR_EXTRUSION.,.F.,.F.,
 .F.,(4,1,1,4),(2,2),(0.,0.25,0.5,1.),(0.,1.),.UNSPECIFIED.);
#23=B_SPLINE_SURFACE_WITH_KNOTS('',3,1,((#185,#186),(#187,#188),(#189,#190),
(#191,#192),(#193,#194),(#195,#196),(#197,#198),(#199,#200),(#201,#202)),
 .SURF_OF_LINEAR_EXTRUSION.,.F.,.F.,.F.,(4,1,1,1,1,1,4),(2,2),(0.,0.25,
0.375,0.5,0.625,0.75,1.),(0.,1.),.UNSPECIFIED.);
#24=B_SPLINE_SURFACE_WITH_KNOTS('',3,1,((#216,#217),(#218,#219),(#220,#221),
(#222,#223),(#224,#225)),.SURF_OF_LINEAR_EXTRUSION.,.F.,.F.,.F.,(4,1,4),
(2,2),(0.,0.5,1.),(0.,1.),.UNSPECIFIED.);
#25=B_SPLINE_SURFACE_WITH_KNOTS('',3,1,((#239,#240),(#241,#242),(#243,#244),
(#245,#246),(#247,#248),(#249,#250),(#251,#252),(#253,#254)),
 .SURF_OF_LINEAR_EXTRUSION.,.F.,.F.,.F.,(4,1,1,1,1,4),(2,2),(0.,0.25,0.375,
0.5,0.75,1.),(0.,1.),.UNSPECIFIED.);
#26=LINE('',#155,#31);
#27=LINE('',#159,#32);
#28=LINE('',#178,#33);
#29=LINE('',#209,#34);
#30=LINE('',#232,#35);
#31=VECTOR('',#139,1000.);
#32=VECTOR('',#142,1000.);
#33=VECTOR('',#143,1000.);
#34=VECTOR('',#144,1000.);
#35=VECTOR('',#145,1000.);
#36=ORIENTED_EDGE('',*,*,#66,.T.);
#37=ORIENTED_EDGE('',*,*,#67,.F.);
#38=ORIENTED_EDGE('',*,*,#68,.F.);
#39=ORIENTED_EDGE('',*,*,#69,.T.);
#40=ORIENTED_EDGE('',*,*,#70,.T.);
#41=ORIENTED_EDGE('',*,*,#71,.F.);
#42=ORIENTED_EDGE('',*,*,#72,.F.);
#43=ORIENTED_EDGE('',*,*,#67,.T.);
#44=ORIENTED_EDGE('',*,*,#73,.T.);
#45=ORIENTED_EDGE('',*,*,#74,.F.);
#46=ORIENTED_EDGE('',*,*,#75,.F.);
#47=ORIENTED_EDGE('',*,*,#71,.T.);
#48=ORIENTED_EDGE('',*,*,#76,.F.);
#49=ORIENTED_EDGE('',*,*,#77,.F.);
#50=ORIENTED_EDGE('',*,*,#78,.T.);
#51=ORIENTED_EDGE('',*,*,#74,.T.);
#52=ORIENTED_EDGE('',*,*,#79,.F.);
#53=ORIENTED_EDGE('',*,*,#69,.F.);
#54=ORIENTED_EDGE('',*,*,#80,.T.);
#55=ORIENTED_EDGE('',*,*,#77,.T.);
#56=ORIENTED_EDGE('',*,*,#68,.T.);
#57=ORIENTED_EDGE('',*,*,#72,.T.);
#58=ORIENTED_EDGE('',*,*,#75,.T.);
#59=ORIENTED_EDGE('',*,*,#78,.F.);
#60=ORIENTED_EDGE('',*,*,#80,.F.);
#61=ORIENTED_EDGE('',*,*,#66,.F.);
#62=ORIENTED_EDGE('',*,*,#79,.T.);
#63=ORIENTED_EDGE('',*,*,#76,.T.);
#64=ORIENTED_EDGE('',*,*,#73,.F.);
#65=ORIENTED_EDGE('',*,*,#70,.F.);
#66=EDGE_CURVE('',#81,#82,#91,.T.);
#67=EDGE_CURVE('',#83,#82,#26,.T.);
#68=EDGE_CURVE('',#84,#83,#92,.T.);
#69=EDGE_CURVE('',#84,#81,#27,.T.);
#70=EDGE_CURVE('',#82,#85,#14,.T.);
#71=EDGE_CURVE('',#86,#85,#28,.T.);
#72=EDGE_CURVE('',#83,#86,#15,.T.);
#73=EDGE_CURVE('',#85,#87,#16,.T.);
#74=EDGE_CURVE('',#88,#87,#29,.T.);
#75=EDGE_CURVE('',#86,#88,#17,.T.);
#76=EDGE_CURVE('',#89,#87,#18,.T.);
#77=EDGE_CURVE('',#90,#89,#30,.T.);
#78=EDGE_CURVE('',#90,#88,#19,.T.);
#79=EDGE_CURVE('',#81,#89,#20,.T.);
#80=EDGE_CURVE('',#84,#90,#21,.T.);
#81=VERTEX_POINT('',#153);
#82=VERTEX_POINT('',#154);
#83=VERTEX_POINT('',#156);
#84=VERTEX_POINT('',#158);
#85=VERTEX_POINT('',#177);
#86=VERTEX_POINT('',#179);
#87=VERTEX_POINT('',#208);
#88=VERTEX_POINT('',#210);
#89=VERTEX_POINT('',#231);
#90=VERTEX_POINT('',#233);
#91=CIRCLE('',#129,2.5);
#92=CIRCLE('',#130,2.5);
#93=EDGE_LOOP('',(#36,#37,#38,#39));
#94=EDGE_LOOP('',(#40,#41,#42,#43));
#95=EDGE_LOOP('',(#44,#45,#46,#47));
#96=EDGE_LOOP('',(#48,#49,#50,#51));
#97=EDGE_LOOP('',(#52,#53,#54,#55));
#98=EDGE_LOOP('',(#56,#57,#58,#59,#60));
#99=EDGE_LOOP('',(#61,#62,#63,#64,#65));
#100=FACE_BOUND('',#93,.T.);
#101=FACE_BOUND('',#94,.T.);
#102=FACE_BOUND('',#95,.T.);
#103=FACE_BOUND('',#96,.T.);
#104=FACE_BOUND('',#97,.T.);
#105=FACE_BOUND('',#98,.T.);
#106=FACE_BOUND('',#99,.T.);
#107=CYLINDRICAL_SURFACE('',#128,2.5);
#108=ADVANCED_FACE('',(#100),#107,.T.);
#109=ADVANCED_FACE('',(#101),#22,.F.);
#110=ADVANCED_FACE('',(#102),#23,.F.);
#111=ADVANCED_FACE('',(#103),#24,.T.);
#112=ADVANCED_FACE('',(#104),#25,.T.);
#113=ADVANCED_FACE('',(#105),#12,.T.);
#114=ADVANCED_FACE('',(#106),#13,.F.);
#115=CLOSED_SHELL('',(#108,#109,#110,#111,#112,#113,#114));
#116=STYLED_ITEM('',(#117),#124);
#117=PRESENTATION_STYLE_ASSIGNMENT((#118));
#118=SURFACE_STYLE_USAGE(.BOTH.,#119);
#119=SURFACE_SIDE_STYLE('',(#120));
#120=SURFACE_STYLE_FILL_AREA(#121);
#121=FILL_AREA_STYLE('',(#122));
#122=FILL_AREA_STYLE_COLOUR('',#123);
#123=COLOUR_RGB('',0.615686274509804,0.811764705882353,0.929411764705882);
#124=MANIFOLD_SOLID_BREP('Part 1',#115);
#125=SHAPE_DEFINITION_REPRESENTATION(#273,#126);
#126=SHAPE_REPRESENTATION('Part 1',(#127),#268);
#127=AXIS2_PLACEMENT_3D('',#150,#133,#134);
#128=AXIS2_PLACEMENT_3D('',#151,#135,#136);
#129=AXIS2_PLACEMENT_3D('',#152,#137,#138);
#130=AXIS2_PLACEMENT_3D('',#157,#140,#141);
#131=AXIS2_PLACEMENT_3D('',#265,#146,#147);
#132=AXIS2_PLACEMENT_3D('',#266,#148,#149);
#133=DIRECTION('',(0.,0.,1.));
#134=DIRECTION('',(1.,0.,0.));
#135=DIRECTION('',(0.,0.,-1.));
#136=DIRECTION('',(0.,1.,0.));
#137=DIRECTION('',(0.,0.,1.));
#138=DIRECTION('',(0.,-1.,0.));
#139=DIRECTION('',(0.,0.,-1.));
#140=DIRECTION('',(0.,0.,1.));
#141=DIRECTION('',(0.,-1.,0.));
#142=DIRECTION('',(0.,0.,-1.));
#143=DIRECTION('',(0.,0.,-1.));
#144=DIRECTION('',(0.,0.,-1.));
#145=DIRECTION('',(0.,0.,-1.));
#146=DIRECTION('',(0.,0.,1.));
#147=DIRECTION('',(1.,0.,0.));
#148=DIRECTION('',(0.,0.,1.));
#149=DIRECTION('',(1.,0.,0.));
#150=CARTESIAN_POINT('',(0.,0.,0.));
#151=CARTESIAN_POINT('',(8.13151629364128E-17,-1.0842021724855E-15,500.));
#152=CARTESIAN_POINT('',(8.13151629364128E-17,-1.0842021724855E-15,0.));
#153=CARTESIAN_POINT('',(-0.419594917355783,2.46453648894254,0.));
#154=CARTESIAN_POINT('',(-1.52001954877265,-1.98482759234876,0.));
#155=CARTESIAN_POINT('',(-1.52001954877265,-1.98482759234876,500.));
#156=CARTESIAN_POINT('',(-1.52001954877265,-1.98482759234876,500.));
#157=CARTESIAN_POINT('',(8.13151629364128E-17,-1.0842021724855E-15,500.));
#158=CARTESIAN_POINT('',(-0.419594917355783,2.46453648894254,500.));
#159=CARTESIAN_POINT('',(-0.419594917355783,2.46453648894254,500.));
#160=CARTESIAN_POINT('',(-1.52001954877265,-1.98482759234876,500.));
#161=CARTESIAN_POINT('',(-1.52001954877265,-1.98482759234876,0.));
#162=CARTESIAN_POINT('',(-0.262358121099189,-3.00113186267825,500.));
#163=CARTESIAN_POINT('',(-0.262358121099189,-3.00113186267825,0.));
#164=CARTESIAN_POINT('',(4.36789414236991,-5.30235646782675,500.));
#165=CARTESIAN_POINT('',(4.36789414236991,-5.30235646782675,0.));
#166=CARTESIAN_POINT('',(16.8730394290007,-9.3319619762651,500.));
#167=CARTESIAN_POINT('',(16.8730394290007,-9.3319619762651,-5.55111512312578E-14));
#168=CARTESIAN_POINT('',(24.2464562720683,-9.92943676474941,500.));
#169=CARTESIAN_POINT('',(24.2464562720683,-9.92943676474941,0.));
#170=CARTESIAN_POINT('',(30.,-10.,500.));
#171=CARTESIAN_POINT('',(30.,-10.,0.));
#172=CARTESIAN_POINT('',(-1.52001954877265,-1.98482759234876,0.));
#173=CARTESIAN_POINT('',(0.964446018140365,-3.99250065091684,0.));
#174=CARTESIAN_POINT('',(14.335576476136,-9.1136668603871,0.));
#175=CARTESIAN_POINT('',(24.1758733813064,-9.92857111440225,0.));
#176=CARTESIAN_POINT('',(30.,-10.,0.));
#177=CARTESIAN_POINT('',(30.,-10.,0.));
#178=CARTESIAN_POINT('',(30.,-10.,500.));
#179=CARTESIAN_POINT('',(30.,-10.,500.));
#180=CARTESIAN_POINT('',(-1.52001954877265,-1.98482759234876,500.));
#181=CARTESIAN_POINT('',(0.964446018140365,-3.99250065091684,500.));
#182=CARTESIAN_POINT('',(14.335576476136,-9.1136668603871,500.));
#183=CARTESIAN_POINT('',(24.1758733813064,-9.92857111440225,500.));
#184=CARTESIAN_POINT('',(30.,-10.,500.));
#185=CARTESIAN_POINT('',(30.,-10.,500.));
#186=CARTESIAN_POINT('',(30.,-10.,0.));
#187=CARTESIAN_POINT('',(33.2554048573823,-10.0145352903113,500.));
#188=CARTESIAN_POINT('',(33.2554048573823,-10.0145352903113,0.));
#189=CARTESIAN_POINT('',(40.8709507935951,-9.38518298924348,500.));
#190=CARTESIAN_POINT('',(40.8709507935951,-9.38518298924348,0.));
#191=CARTESIAN_POINT('',(52.9988432850768,-7.9266777613375,500.));
#192=CARTESIAN_POINT('',(52.9988432850768,-7.9266777613375,0.));
#193=CARTESIAN_POINT('',(62.1415151923979,-6.71086876665519,500.));
#194=CARTESIAN_POINT('',(62.1415151923979,-6.71086876665519,1.11022302462516E-13));
#195=CARTESIAN_POINT('',(70.7077690199698,-5.48084329104717,500.));
#196=CARTESIAN_POINT('',(70.7077690199698,-5.48084329104717,0.));
#197=CARTESIAN_POINT('',(82.0202821972655,-3.58917245337793,500.));
#198=CARTESIAN_POINT('',(82.0202821972655,-3.58917245337793,1.11022302462516E-13));
#199=CARTESIAN_POINT('',(90.8997076806479,-1.68211606470649,500.));
#200=CARTESIAN_POINT('',(90.8997076806479,-1.68211606470649,0.));
#201=CARTESIAN_POINT('',(97.5,2.61681287336152E-16,500.));
#202=CARTESIAN_POINT('',(97.5,2.61681287336152E-16,0.));
#203=CARTESIAN_POINT('',(30.,-10.,0.));
#204=CARTESIAN_POINT('',(36.119591215625,-10.0273238011254,0.));
#205=CARTESIAN_POINT('',(62.8635885623761,-6.81499117299249,0.));
#206=CARTESIAN_POINT('',(83.506224784952,-3.56638054137491,0.));
#207=CARTESIAN_POINT('',(97.5,2.61681287336152E-16,0.));
#208=CARTESIAN_POINT('',(97.5,5.2077773212874E-17,0.));
#209=CARTESIAN_POINT('',(97.5,5.2077773212874E-17,500.));
#210=CARTESIAN_POINT('',(97.5,5.2077773212874E-17,500.));
#211=CARTESIAN_POINT('',(30.,-10.,500.));
#212=CARTESIAN_POINT('',(36.119591215625,-10.0273238011254,500.));
#213=CARTESIAN_POINT('',(62.8635885623761,-6.81499117299249,500.));
#214=CARTESIAN_POINT('',(83.506224784952,-3.56638054137491,500.));
#215=CARTESIAN_POINT('',(97.5,2.61681287336152E-16,500.));
#216=CARTESIAN_POINT('',(30.,2.,500.));
#217=CARTESIAN_POINT('',(30.,2.,0.));
#218=CARTESIAN_POINT('',(42.0622344062094,1.04894463112658,500.));
#219=CARTESIAN_POINT('',(42.0622344062094,1.04894463112658,0.));
#220=CARTESIAN_POINT('',(65.961519667135,-0.370311592036521,500.));
#221=CARTESIAN_POINT('',(65.961519667135,-0.370311592036521,0.));
#222=CARTESIAN_POINT('',(87.0101238319756,-0.152250956975032,500.));
#223=CARTESIAN_POINT('',(87.0101238319756,-0.152250956975032,0.));
#224=CARTESIAN_POINT('',(97.5,5.2077773212874E-17,500.));
#225=CARTESIAN_POINT('',(97.5,5.2077773212874E-17,0.));
#226=CARTESIAN_POINT('',(30.,2.,0.));
#227=CARTESIAN_POINT('',(42.6074713468552,1.00595504045486,0.));
#228=CARTESIAN_POINT('',(66.468884171504,-0.379906351512786,0.));
#229=CARTESIAN_POINT('',(87.4842870588702,-0.145368911477001,0.));
#230=CARTESIAN_POINT('',(97.5,5.2077773212874E-17,0.));
#231=CARTESIAN_POINT('',(30.,2.,0.));
#232=CARTESIAN_POINT('',(30.,2.,500.));
#233=CARTESIAN_POINT('',(30.,2.,500.));
#234=CARTESIAN_POINT('',(30.,2.,500.));
#235=CARTESIAN_POINT('',(42.6074713468552,1.00595504045486,500.));
#236=CARTESIAN_POINT('',(66.468884171504,-0.379906351512786,500.));
#237=CARTESIAN_POINT('',(87.4842870588702,-0.145368911477001,500.));
#238=CARTESIAN_POINT('',(97.5,5.2077773212874E-17,500.));
#239=CARTESIAN_POINT('',(-0.419594917355783,2.46453648894254,500.));
#240=CARTESIAN_POINT('',(-0.419594917355783,2.46453648894254,0.));
#241=CARTESIAN_POINT('',(1.79406734235246,2.84141929716359,500.));
#242=CARTESIAN_POINT('',(1.79406734235246,2.84141929716359,0.));
#243=CARTESIAN_POINT('',(5.11079483467804,3.21896414812945,500.));
#244=CARTESIAN_POINT('',(5.11079483467804,3.21896414812945,0.));
#245=CARTESIAN_POINT('',(9.95533029200366,3.34751659471895,500.));
#246=CARTESIAN_POINT('',(9.95533029200366,3.34751659471895,0.));
#247=CARTESIAN_POINT('',(15.2589613645015,3.2197553219936,500.));
#248=CARTESIAN_POINT('',(15.2589613645015,3.2197553219936,0.));
#249=CARTESIAN_POINT('',(22.7825679942862,2.62553449964657,500.));
#250=CARTESIAN_POINT('',(22.7825679942862,2.62553449964657,0.));
#251=CARTESIAN_POINT('',(28.0030844957243,2.13833855028621,500.));
#252=CARTESIAN_POINT('',(28.0030844957243,2.13833855028621,0.));
#253=CARTESIAN_POINT('',(30.,2.,500.));
#254=CARTESIAN_POINT('',(30.,2.,0.));
#255=CARTESIAN_POINT('',(-0.419594917355783,2.46453648894254,0.));
#256=CARTESIAN_POINT('',(3.74963716603809,3.17436107434335,0.));
#257=CARTESIAN_POINT('',(12.5757870041931,3.74064268068968,0.));
#258=CARTESIAN_POINT('',(25.7733472117171,2.29280608921223,0.));
#259=CARTESIAN_POINT('',(30.,2.,0.));
#260=CARTESIAN_POINT('',(-0.419594917355783,2.46453648894254,500.));
#261=CARTESIAN_POINT('',(3.74963716603809,3.17436107434335,500.));
#262=CARTESIAN_POINT('',(12.5757870041931,3.74064268068968,500.));
#263=CARTESIAN_POINT('',(25.7733472117171,2.29280608921223,500.));
#264=CARTESIAN_POINT('',(30.,2.,500.));
#265=CARTESIAN_POINT('',(47.5,-3.14334056021785,500.));
#266=CARTESIAN_POINT('',(47.5,-3.14334056021785,0.));
#267=MECHANICAL_DESIGN_GEOMETRIC_PRESENTATION_REPRESENTATION('',(#116),
#268);
#268=(
GEOMETRIC_REPRESENTATION_CONTEXT(3)
GLOBAL_UNCERTAINTY_ASSIGNED_CONTEXT((#269))
GLOBAL_UNIT_ASSIGNED_CONTEXT((#272,#271,#270))
REPRESENTATION_CONTEXT('Part 1','TOP_LEVEL_ASSEMBLY_PART')
);
#269=UNCERTAINTY_MEASURE_WITH_UNIT(LENGTH_MEASURE(1.E-5),#272,
'DISTANCE_ACCURACY_VALUE','Maximum Tolerance applied to model');
#270=(
NAMED_UNIT(*)
SI_UNIT($,.STERADIAN.)
SOLID_ANGLE_UNIT()
);
#271=(
NAMED_UNIT(*)
PLANE_ANGLE_UNIT()
SI_UNIT($,.RADIAN.)
);
#272=(
LENGTH_UNIT()
NAMED_UNIT(*)
SI_UNIT(.MILLI.,.METRE.)
);
#273=PRODUCT_DEFINITION_SHAPE('','',#274);
#274=PRODUCT_DEFINITION('','',#276,#275);
#275=PRODUCT_DEFINITION_CONTEXT('',#282,'design');
#276=PRODUCT_DEFINITION_FORMATION_WITH_SPECIFIED_SOURCE('','',#278,
 .NOT_KNOWN.);
#277=PRODUCT_RELATED_PRODUCT_CATEGORY('','',(#278));
#278=PRODUCT('Part 1','Part 1','Part 1',(#280));
#279=PRODUCT_CATEGORY('','');
#280=PRODUCT_CONTEXT('',#282,'mechanical');
#281=APPLICATION_PROTOCOL_DEFINITION('international standard',
'ap242_managed_model_based_3d_engineering',2020,#282);
#282=APPLICATION_CONTEXT('managed model based 3d engineering');
ENDSEC;
END-ISO-10303-21;
